<svg width="800" height="800" viewBox="0 0 800 800" fill="none" xmlns="http://www.w3.org/2000/svg">

    <!-- Background -->
    <rect width="800" height="800" fill="#fefffe"/>


    <!--    Body -->
    <path fill="#000000"
          d="M 249.5,199.5 C 249.5,332.833 249.5,466.167 249.5,599.5C 232.833,599.5 216.167,599.5 199.5,599.5C 199.5,466.167 199.5,332.833 199.5,199.5C 216.167,199.5 232.833,199.5 249.5,199.5 Z"/>

    <path fill="#7f807f"
          d="M 249.5,199.5 C 366.167,199.5 482.833,199.5 599.5,199.5C 599.5,332.833 599.5,466.167 599.5,599.5C 482.833,599.5 366.167,599.5 249.5,599.5C 249.5,466.167 249.5,332.833 249.5,199.5 Z"/>


    <!-- Eyes -->
    <!-- yellow iris -->
        <path fill="#bebfbe"
              d="M 299.5,299.5 C 299.5,349.5 299.5,399.5 299.5,449.5C 282.833,449.5 266.167,449.5 249.5,449.5C 249.5,399.5 249.5,349.5 249.5,299.5C 266.167,299.5 282.833,299.5 299.5,299.5 Z"/>
        <path fill="#fefffe"
              d="M 299.5,299.5 C 349.5,299.5 399.5,299.5 449.5,299.5C 449.5,349.5 449.5,399.5 449.5,449.5C 399.5,449.5 349.5,449.5 299.5,449.5C 299.5,399.5 299.5,349.5 299.5,299.5 Z"/>
        <path fill="#bebfbe"
              d="M 449.5,299.5 C 466.167,299.5 482.833,299.5 499.5,299.5C 499.5,349.5 499.5,399.5 499.5,449.5C 482.833,449.5 466.167,449.5 449.5,449.5C 449.5,399.5 449.5,349.5 449.5,299.5 Z"/>
        <path fill="#fefffe"
              d="M 499.5,299.5 C 532.833,299.5 566.167,299.5 599.5,299.5C 599.5,316.167 599.5,332.833 599.5,349.5C 582.833,349.5 566.167,349.5 549.5,349.5C 549.5,366.167 549.5,382.833 549.5,399.5C 566.167,399.5 582.833,399.5 599.5,399.5C 599.5,416.167 599.5,432.833 599.5,449.5C 566.167,449.5 532.833,449.5 499.5,449.5C 499.5,399.5 499.5,349.5 499.5,299.5 Z"/>
        <path fill="#7f8000"
              d="M 349.5,349.5 C 366.167,349.5 382.833,349.5 399.5,349.5C 399.5,366.167 399.5,382.833 399.5,399.5C 382.833,399.5 366.167,399.5 349.5,399.5C 349.5,382.833 349.5,366.167 349.5,349.5 Z"/>
        <path fill="#7f8000"
              d="M 599.5,349.5 C 599.5,366.167 599.5,382.833 599.5,399.5C 582.833,399.5 566.167,399.5 549.5,399.5C 549.5,382.833 549.5,366.167 549.5,349.5C 566.167,349.5 582.833,349.5 599.5,349.5 Z"/>

    <!-- Hair -->
    <!-- yellow mohawk -->
    <path fill="#fefffe"
          d="M 299.5,199.5 C 299.5,216.167 299.5,232.833 299.5,249.5C 266.167,249.5 232.833,249.5 199.5,249.5C 199.5,232.833 199.5,216.167 199.5,199.5C 232.833,199.5 266.167,199.5 299.5,199.5 Z"/>
    <path fill="#7f8000"
          d="M 299.5,199.5 C 316.167,199.5 332.833,199.5 349.5,199.5C 349.5,216.167 349.5,232.833 349.5,249.5C 332.833,249.5 316.167,249.5 299.5,249.5C 299.5,232.833 299.5,216.167 299.5,199.5 Z"/>
    <path fill="#feff00"
          d="M 349.5,199.5 C 399.5,199.5 449.5,199.5 499.5,199.5C 499.5,216.167 499.5,232.833 499.5,249.5C 449.5,249.5 399.5,249.5 349.5,249.5C 349.5,232.833 349.5,216.167 349.5,199.5 Z"/>
    <path fill="#fefffe"
          d="M 499.5,199.5 C 532.833,199.5 566.167,199.5 599.5,199.5C 599.5,216.167 599.5,232.833 599.5,249.5C 566.167,249.5 532.833,249.5 499.5,249.5C 499.5,232.833 499.5,216.167 499.5,199.5 Z"/>

    <!-- Mouth -->
    <!-- yellow board -->
        <path fill="#7f8000"
              d="M 249.5,449.5 C 249.5,499.5 249.5,549.5 249.5,599.5C 232.833,599.5 216.167,599.5 199.5,599.5C 199.5,549.5 199.5,499.5 199.5,449.5C 216.167,449.5 232.833,449.5 249.5,449.5 Z"/>
        <path fill="#feff00"
              d="M 249.5,449.5 C 316.167,449.5 382.833,449.5 449.5,449.5C 449.5,466.167 449.5,482.833 449.5,499.5C 466.167,499.5 482.833,499.5 499.5,499.5C 499.5,516.167 499.5,532.833 499.5,549.5C 516.167,549.5 532.833,549.5 549.5,549.5C 549.5,566.167 549.5,582.833 549.5,599.5C 449.5,599.5 349.5,599.5 249.5,599.5C 249.5,549.5 249.5,499.5 249.5,449.5 Z"/>
        <path fill="#000000"
              d="M 349.5,499.5 C 349.5,516.167 349.5,532.833 349.5,549.5C 332.833,549.5 316.167,549.5 299.5,549.5C 299.5,532.833 299.5,516.167 299.5,499.5C 316.167,499.5 332.833,499.5 349.5,499.5 Z"/>
        <path fill="#7f8000"
              d="M 349.5,499.5 C 366.167,499.5 382.833,499.5 399.5,499.5C 399.5,516.167 399.5,532.833 399.5,549.5C 382.833,549.5 366.167,549.5 349.5,549.5C 349.5,532.833 349.5,516.167 349.5,499.5 Z"/>

</svg>